<svg xmlns="http://www.w3.org/2000/svg" xmlns:xlink="http://www.w3.org/1999/xlink" xmlns:xodm="http://www.corel.com/coreldraw/odm/2003" xml:space="preserve" width="210mm" height="297mm" style="shape-rendering:geometricPrecision; text-rendering:geometricPrecision; image-rendering:optimizeQuality; fill-rule:evenodd; clip-rule:evenodd" viewBox="0 0 21000 29700">
 <defs>
  <style type="text/css">
   <![CDATA[
    .str0 {stroke:#FEFEFE;stroke-width:100;stroke-miterlimit:22.9256}
    .fil0 {fill:none}
   ]]>
  </style>
 </defs>
 <g id="Camada_x0020_1">
  <metadata id="CorelCorpID_0Corel-Layer"></metadata>
  <g id="_1623992932704">
   <path class="fil0 str0" d="M2616.79 19289.26l840.46 0 0 -441.96 -1327.03 0 0 3093.63 1327.03 0 0 -441.95 -840.46 0 0 -905.99 667.95 0 0 -441.96 -667.95 0 0 -861.77zm1813.66 -441.96l0 0 -676.82 0 0 3093.63 424.67 0 0 -2187.65 8.84 0 353.88 2187.65 460.07 0 327.33 -2218.57 8.84 0 0 2218.57 460.08 0 0 -3093.63 -676.82 0 -327.34 2196.48 -8.85 0 -353.88 -2196.48zm2671.81 1940.13l0 0 0 441.96c0,220.98 -97.31,300.53 -252.14,300.53 -154.83,0 -252.14,-79.55 -252.14,-300.53l0 -1670.57c0,-220.96 97.31,-304.94 252.14,-304.94 154.83,0 252.14,83.98 252.14,304.94l0 331.49 460.07 0 0 -300.55c0,-494.99 -247.73,-777.82 -725.48,-777.82 -477.73,0 -725.48,282.83 -725.48,777.82l0 1608.71c0,494.97 247.75,777.81 725.48,777.81 477.75,0 725.48,-282.84 725.48,-777.81l0 -411.04 -460.07 0zm1428.8 -1940.13l0 0 -676.8 0 0 3093.63 424.69 0 0 -2187.65 8.81 0 353.89 2187.65 460.05 0 327.37 -2218.57 8.81 0 0 2218.57 460.07 0 0 -3093.63 -676.83 0 -327.3 2196.48 -8.85 0 -353.91 -2196.48zm2472.76 3380.89l0 0 398.13 0 0 -3668.17 -398.13 0 0 3668.17zm1437.68 -3380.89l0 0 0 2355.58c0,494.99 247.69,777.84 725.44,777.84 477.73,0 725.47,-282.85 725.47,-777.84l0 -2355.58 -460.06 0 0 2386.53c0,220.95 -97.32,300.5 -252.12,300.5 -154.83,0 -252.16,-79.55 -252.16,-300.5l0 -2386.53 -486.57 0zm2269.25 441.96l0 0 800.7 0 0 -441.96 -1287.27 0 0 3093.63 486.57 0 0 -1277.22 628.18 0 0 -441.95 -628.18 0 0 -932.5zm2547.99 2651.67l0 0c-48.66,-114.9 -53.09,-225.39 -53.09,-375.65l0 -477.3c0,-322.62 -79.61,-552.45 -322.9,-654.1l0 -8.82c216.77,-101.65 318.49,-304.95 318.49,-623.15l0 -243.09c0,-477.3 -216.76,-711.52 -721.03,-711.52l-734.3 0 0 3093.63 486.57 0 0 -1259.56 168.1 0c221.18,0 318.49,106.06 318.49,393.35l0 486.15c0,251.91 17.69,300.52 44.23,380.06l495.44 0zm-791.81 -2651.67l0 0c172.5,0 247.71,97.2 247.71,318.19l0 304.93c0,247.49 -110.59,327.04 -291.94,327.04l-190.22 0 0 -950.16 234.45 0zm2096.76 2651.67l0 0 499.86 0 0 -3093.63 -433.51 0 0 1851.76 -8.86 0 -490.99 -1851.76 -610.47 0 0 3093.63 437.95 0 0 -2240.67 8.83 0 597.19 2240.67z"></path>
   <path class="fil0 str0" d="M3033.39 22662.66l426.27 0 0 -224.1 -673.03 0 0 1568.89 673.03 0 0 -224.14 -426.27 0 0 -459.46 338.75 0 0 -224.11 -338.75 0 0 -437.08zm547.4 152.43l0 0c0,179.32 65.08,309.3 271.47,490.85 161.51,141.19 210.87,226.36 210.87,340.66 0,112.06 -49.36,152.41 -127.89,152.41 -78.5,0 -127.85,-40.35 -127.85,-152.41l0 -112.05 -233.31 0 0 96.39c0,251 125.63,394.44 367.9,394.44 242.29,0 367.92,-143.44 367.92,-394.44 0,-179.32 -65.06,-309.32 -271.44,-490.85 -161.52,-141.21 -210.88,-226.37 -210.88,-340.7 0,-112.04 44.86,-154.63 123.38,-154.63 78.53,0 123.38,42.59 123.38,154.63l0 64.99 233.33 0 0 -49.29c0,-251.02 -123.4,-394.48 -363.43,-394.48 -240.05,0 -363.45,143.46 -363.45,394.48zm1352.77 607.39l0 0 0 224.12c0,112.06 -49.35,152.41 -127.89,152.41 -78.49,0 -127.87,-40.35 -127.87,-152.41l0 -847.21c0,-112.04 49.38,-154.63 127.87,-154.63 78.54,0 127.89,42.59 127.89,154.63l0 168.11 233.31 0 0 -152.41c0,-251.02 -125.66,-394.48 -367.94,-394.48 -242.27,0 -367.9,143.46 -367.9,394.48l0 815.85c0,251 125.63,394.44 367.9,394.44 242.28,0 367.94,-143.44 367.94,-394.44l0 -208.46 -233.31 0zm610.18 -623.09l0 0c0,-112.04 49.38,-154.63 127.87,-154.63 78.55,0 127.9,42.59 127.9,154.63l0 847.21c0,112.06 -49.35,154.66 -127.9,154.66 -78.49,0 -127.87,-42.6 -127.87,-154.66l0 -847.21zm-246.77 831.55l0 0c0,251 132.37,394.44 374.64,394.44 242.3,0 374.67,-143.44 374.67,-394.44l0 -815.85c0,-251.02 -132.37,-394.48 -374.67,-394.48 -242.27,0 -374.64,143.46 -374.64,394.48l0 815.85zm908.57 376.51l0 0 652.81 0 0 -224.14 -406.05 0 0 -1344.75 -246.76 0 0 1568.89zm1307.85 -1568.89l0 0 -361.17 0 -251.27 1568.89 226.58 0 42.65 -284.65 302.84 0 42.6 284.65 249.04 0 -251.27 -1568.89zm-195.15 277.92l0 0 4.49 0 116.65 793.42 -237.8 0 116.66 -793.42zm1249.52 -277.92l0 0 -343.21 0 0 1568.89 215.33 0 0 -1109.43 4.49 0 179.49 1109.43 233.29 0 166.02 -1125.11 4.49 0 0 1125.11 233.31 0 0 -1568.89 -343.26 0 -166 1113.91 -4.5 0 -179.45 -1113.91zm861.44 0l0 0 0 1194.6c0,251.01 125.65,394.46 367.93,394.46 242.3,0 367.92,-143.45 367.92,-394.46l0 -1194.6 -233.34 0 0 1210.29c0,112.07 -49.33,152.41 -127.87,152.41 -78.49,0 -127.85,-40.34 -127.85,-152.41l0 -1210.29 -246.79 0zm904.08 1568.89l0 0 652.8 0 0 -224.14 -406.05 0 0 -1344.75 -246.75 0 0 1568.89zm576.51 -1344.79l0 0 0 -224.1 762.75 0 0 224.1 -257.95 0 0 1344.79 -246.81 0 0 -1344.79 -257.99 0zm870.43 1344.79l0 0 246.78 0 0 -1568.89 -246.78 0 0 1568.89zm908.59 -584.97l0 0 0 224.12c0,112.06 -49.34,152.41 -127.86,152.41 -78.53,0 -127.9,-40.35 -127.9,-152.41l0 -847.21c0,-112.04 49.37,-154.63 127.9,-154.63 78.52,0 127.86,42.59 127.86,154.63l0 168.11 233.31 0 0 -152.41c0,-251.02 -125.65,-394.48 -367.92,-394.48 -242.29,0 -367.92,143.46 -367.92,394.48l0 815.85c0,251 125.63,394.44 367.92,394.44 242.27,0 367.92,-143.44 367.92,-394.44l0 -208.46 -233.31 0zm931 -983.92l0 0 -361.19 0 -251.25 1568.89 226.57 0 42.65 -284.65 302.84 0 42.61 284.65 249.04 0 -251.27 -1568.89zm-195.16 277.92l0 0 4.5 0 116.64 793.42 -237.78 0 116.64 -793.42zm901.82 -277.92l0 0 -343.23 0 0 1568.89 215.35 0 0 -1109.43 4.49 0 179.48 1109.43 233.28 0 166.04 -1125.11 4.49 0 0 1125.11 233.31 0 0 -1568.89 -343.26 0 -166 1113.91 -4.5 0 -179.45 -1113.91zm1236.07 0l0 0 -363.42 0 0 1568.89 246.76 0 0 -589.44 116.66 0c246.77,0 367.91,-136.73 367.91,-387.75l0 -203.96c0,-251.02 -121.14,-387.74 -367.91,-387.74zm0 224.1l0 0c78.53,0 121.14,35.87 121.14,147.94l0 235.33c0,112.07 -42.61,147.93 -121.14,147.93l-116.66 0 0 -531.2 116.66 0zm482.34 1344.79l0 0 246.77 0 0 -1568.89 -246.77 0 0 1568.89zm773.96 0l0 0 390.36 0c246.76,0 367.9,-136.72 367.9,-387.73l0 -793.42c0,-251.02 -121.14,-387.74 -367.9,-387.74l-390.36 0 0 1568.89zm385.87 -1344.79l0 0c78.51,0 125.63,40.35 125.63,152.43l0 815.85c0,112.03 -47.12,152.37 -125.63,152.37l-139.11 0 0 -1120.65 139.11 0zm776.2 0l0 0 426.24 0 0 -224.1 -673 0 0 1568.89 673 0 0 -224.14 -426.24 0 0 -459.46 338.74 0 0 -224.11 -338.74 0 0 -437.08zm-13058.58 2911.47l0 0 0 224.11c0,112.07 -49.33,152.42 -127.88,152.42 -78.49,0 -127.89,-40.35 -127.89,-152.42l0 -847.2c0,-112.04 49.4,-154.63 127.89,-154.63 78.55,0 127.88,42.59 127.88,154.63l0 168.11 233.32 0 0 -152.43c0,-251 -125.65,-394.46 -367.94,-394.46 -242.28,0 -367.91,143.46 -367.91,394.46l0 815.85c0,251.02 125.63,394.44 367.91,394.44 242.29,0 367.94,-143.42 367.94,-394.44l0 -208.44 -233.32 0zm383.61 584.97l0 0 246.76 0 0 -1568.89 -246.76 0 0 1568.89zm673.02 -1344.79l0 0 426.25 0 0 -224.1 -673.01 0 0 1568.89 673.01 0 0 -224.14 -426.25 0 0 -459.47 338.75 0 0 -224.1 -338.75 0 0 -437.08zm-13.45 -307.05l0 0 98.73 -123.25 100.94 123.25 210.87 0 -199.69 -248.76 -222.07 0 -199.65 248.76 210.87 0zm1119.44 1651.84l0 0 253.5 0 0 -1568.89 -219.86 0 0 939.1 -4.47 0 -249.03 -939.1 -309.55 0 0 1568.89 222.07 0 0 -1136.34 4.5 0 302.84 1136.34zm913.04 -584.97l0 0 0 224.11c0,112.07 -49.35,152.42 -127.88,152.42 -78.5,0 -127.87,-40.35 -127.87,-152.42l0 -847.2c0,-112.04 49.37,-154.63 127.87,-154.63 78.53,0 127.88,42.59 127.88,154.63l0 168.11 233.33 0 0 -152.43c0,-251 -125.67,-394.46 -367.94,-394.46 -242.3,0 -367.9,143.46 -367.9,394.46l0 815.85c0,251.02 125.6,394.44 367.9,394.44 242.27,0 367.94,-143.42 367.94,-394.44l0 -208.44 -233.33 0zm383.62 584.97l0 0 246.76 0 0 -1568.89 -246.76 0 0 1568.89zm973.64 -1568.89l0 0 -361.2 0 -251.24 1568.89 226.57 0 42.63 -284.66 302.86 0 42.6 284.66 249.02 0 -251.24 -1568.89zm-195.18 277.92l0 0 4.49 0 116.67 793.42 -237.8 0 116.64 -793.42zm529.42 98.59l0 0c0,179.33 65.07,309.32 271.46,490.85 161.53,141.21 210.85,226.37 210.85,340.67 0,112.07 -49.32,152.42 -127.86,152.42 -78.51,0 -127.85,-40.35 -127.85,-152.42l0 -112.04 -233.32 0 0 96.37c0,251.02 125.63,394.44 367.89,394.44 242.29,0 367.9,-143.42 367.9,-394.44 0,-179.31 -65.05,-309.3 -271.41,-490.84 -161.54,-141.2 -210.88,-226.37 -210.88,-340.69 0,-112.04 44.87,-154.63 123.36,-154.63 78.53,0 123.41,42.59 123.41,154.63l0 64.99 233.3 0 0 -49.31c0,-251 -123.39,-394.46 -363.4,-394.46 -240.08,0 -363.45,143.46 -363.45,394.46zm1559.11 -376.51l0 0 -343.21 0 0 1568.89 215.35 0 0 -1109.43 4.46 0 179.5 1109.43 233.28 0 166.05 -1125.13 4.46 0 0 1125.13 233.32 0 0 -1568.89 -343.27 0 -165.98 1113.91 -4.49 0 -179.47 -1113.91zm1119.42 224.1l0 0 426.25 0 0 -224.1 -673.01 0 0 1568.89 673.01 0 0 -224.14 -426.25 0 0 -459.47 338.75 0 0 -224.1 -338.75 0 0 -437.08zm109.96 -555.81l0 0 -152.56 248.76 166.01 0 228.83 -248.76 -242.28 0zm468.87 1900.6l0 0 390.34 0c246.76,0 367.9,-136.72 367.9,-387.74l0 -793.42c0,-251.01 -121.14,-387.73 -367.9,-387.73l-390.34 0 0 1568.89zm385.86 -1344.79l0 0c78.49,0 125.61,40.35 125.61,152.41l0 815.85c0,112.05 -47.12,152.39 -125.61,152.39l-139.1 0 0 -1120.65 139.1 0zm529.42 1344.79l0 0 246.76 0 0 -1568.89 -246.76 0 0 1568.89zm908.59 -584.97l0 0 0 224.11c0,112.07 -49.34,152.42 -127.88,152.42 -78.51,0 -127.89,-40.35 -127.89,-152.42l0 -847.2c0,-112.04 49.38,-154.63 127.89,-154.63 78.54,0 127.88,42.59 127.88,154.63l0 168.11 233.31 0 0 -152.43c0,-251 -125.65,-394.46 -367.93,-394.46 -242.3,0 -367.92,143.46 -367.92,394.46l0 815.85c0,251.02 125.62,394.44 367.92,394.44 242.28,0 367.93,-143.42 367.93,-394.44l0 -208.44 -233.31 0zm931 -983.92l0 0 -361.19 0 -251.25 1568.89 226.57 0 42.64 -284.66 302.85 0 42.59 284.66 249.04 0 -251.25 -1568.89zm-195.15 277.92l0 0 4.46 0 116.66 793.42 -237.8 0 116.68 -793.42zm529.39 98.59l0 0c0,179.33 65.07,309.32 271.46,490.85 161.51,141.21 210.86,226.37 210.86,340.67 0,112.07 -49.35,152.42 -127.88,152.42 -78.49,0 -127.86,-40.35 -127.86,-152.42l0 -112.04 -233.31 0 0 96.37c0,251.02 125.63,394.44 367.9,394.44 242.3,0 367.93,-143.42 367.93,-394.44 0,-179.31 -65.06,-309.3 -271.45,-490.84 -161.52,-141.2 -210.88,-226.37 -210.88,-340.69 0,-112.04 44.88,-154.63 123.39,-154.63 78.53,0 123.38,42.59 123.38,154.63l0 64.99 233.33 0 0 -49.31c0,-251 -123.4,-394.46 -363.42,-394.46 -240.05,0 -363.45,143.46 -363.45,394.46z"></path>
  </g>
  <g id="_1623992934912">
   <path class="fil0 str0" d="M9104.64 16284.06c-169.73,-224.53 -501.07,-436.64 -737.63,-635.55 -260.04,-218.66 -488.16,-381.39 -759.94,-601.94 -210.89,-171.17 -459.33,-465.58 -627.13,-735.79l-477.08 -878.36c-40.3,1520.4 1098.58,2839.85 2601.78,2851.64z"></path>
   <path class="fil0 str0" d="M11889.54 16238.94c1655.12,-61.79 2612.02,-1178.83 2749.19,-2766.93 -201.22,192.42 -410.46,961.31 -1179.45,1556 -360.56,278.88 -1330.11,937.64 -1569.74,1210.93z"></path>
   <path class="fil0 str0" d="M9927.28 16962.19c-382.91,-271.64 -1335.23,-87.88 -1871.55,-73.62 -801.78,21.25 -1158.14,-163.08 -1721.34,-417.29 251.65,386.98 1014.53,826.56 1607.19,925.57 635.51,106.11 1805.73,-39.68 1985.7,-434.66z"></path>
   <path class="fil0 str0" d="M12874.44 16396.19c1583.13,449.99 2037.97,-733.43 2803.07,-1112.41 242.32,-119.98 685,-200.18 934.76,-269.6 13.16,-3.65 50.89,-15.34 62.92,-19.89 101.33,-38.39 43.08,-13.44 88.21,-43.98 -899.87,-234.43 -1390.11,-29.73 -2064.16,516.71 -303.93,246.4 -418.55,392.14 -817.99,544.17 -202.31,77.04 -903.07,308.67 -1006.81,385z"></path>
   <path class="fil0 str0" d="M12946.21 16919.91c-500.19,-0.57 -1421.82,-163.02 -1776.75,122.44 101.85,235.65 583.72,353.31 898.73,397.02 841.24,116.72 1359.46,-9.33 2039.01,-437.74 318.61,-200.85 453.4,-362.07 677.18,-596.45 -132.72,31.54 -235.19,124.49 -361.08,188.12 -502.51,253.98 -880.87,327.27 -1477.09,326.61z"></path>
   <path class="fil0 str0" d="M4255.92 14854.47c1224.58,396.78 936.66,147.54 1847.22,972.74 726.27,658.13 1096.73,800.89 2072.1,604.72 -753.27,-392.8 -1006.63,-237.97 -1815.43,-981.53 -688.92,-633.28 -908.1,-681.58 -2103.89,-595.93z"></path>
   <path class="fil0 str0" d="M13953.79 15641.17c666.76,-243.14 1504.31,-1194.69 1397.92,-2246.68 -24.06,-238.11 -118.1,-759.23 -310.93,-924.15 150.23,871.08 -155.45,1852.8 -620.94,2557.85 -144.28,218.61 -370.17,431.49 -466.05,612.98z"></path>
   <path class="fil0 str0" d="M7099.78 15648.65c-93.29,-200.24 -286.42,-395.88 -431.4,-624.05 -134.94,-212.46 -269.87,-452.7 -358.85,-687.21 -226.66,-597.53 -234.09,-1119.27 -213.11,-1853.84 -288.64,225.25 -475.34,1261.18 -171.69,1920.84 217.24,471.92 740.52,1058.65 1175.05,1244.26z"></path>
   <path class="fil0 str0" d="M5729.7 14645.05c-46.13,-238.72 -897.82,-1044.87 -1100.14,-1312.25 -107.44,-142.04 -253.79,-327.18 -379.45,-426.71 15.52,308.05 321.54,886.42 480.39,1128.61 209.43,319.21 537.08,567.41 999.2,610.35z"></path>
   <path class="fil0 str0" d="M15316.1 14712.62c492.28,-78.03 826.94,-254.73 1056.73,-578.78 188.97,-266.53 463.87,-792.52 543.54,-1149.57l-1600.27 1728.35z"></path>
   <path class="fil0 str0" d="M16259.28 9773.57c73.1,-294.31 72.87,-678.03 -46.88,-927.37 -100.65,-209.65 -350.8,-477.74 -545.17,-578.31 20.74,206.44 180.78,617.18 247.46,792.52 89.19,234.66 209.89,496.02 344.59,713.16z"></path>
   <path class="fil0 str0" d="M4972.54 9714.01c194.24,-205.35 637.98,-1207.76 670.13,-1524.1 -140.06,90.58 -445.92,372.44 -538.4,531.44 -164.96,283.57 -145.54,589.96 -131.73,992.66z"></path>
   <path class="fil0 str0" d="M16077.42 13390.04c302.65,-82.62 498.54,-183.61 621.5,-454.49 160.36,-353.27 175,-449.39 247.96,-823.06 -97.3,95.93 -172.16,133.85 -267.23,246.92 -85.18,101.33 -155.02,216.33 -231.74,328.69 -217.84,318.99 -232.52,438.73 -370.49,701.94z"></path>
   <path class="fil0 str0" d="M5045.37 13307.13c-186.26,-429.97 -463.58,-1043.13 -798.35,-1274 -4.44,214.92 130.73,658.9 211.04,827.51 101.95,214.11 298.78,403.36 587.31,446.49z"></path>
   <path class="fil0 str0" d="M16434.19 12327.55c389.45,-262.64 462.74,-1077.61 424.39,-1363.21 -432.45,287.44 -448.68,807.1 -424.39,1363.21z"></path>
   <path class="fil0 str0" d="M4748.17 12255.29c19.22,-163.64 -1.14,-654.87 -32.16,-812.45 -47.44,-241.1 -148.38,-479.78 -361.83,-555.73 20.07,550.61 16.01,1136.13 393.99,1368.18z"></path>
   <path class="fil0 str0" d="M5596.03 13980.39c53.51,-555.59 -25.13,-1091.96 79.17,-1663.12 -168.13,216.14 -332.53,422.82 -349.29,795.78 -16.23,361.94 112.79,639.78 270.12,867.34z"></path>
   <path class="fil0 str0" d="M16274.86 11721.39c193.65,-608.9 -42.75,-894.79 -241.95,-1368.04 -115.25,169.7 -104.93,539.3 -51.99,767.9 59.61,257.62 143.46,471.49 293.94,600.14z"></path>
   <path class="fil0 str0" d="M4949.59 11652.36c304.3,-461.65 354.12,-709.14 289.63,-1378.74 -194.32,266.05 -570.12,982.62 -289.63,1378.74z"></path>
   <path class="fil0 str0" d="M15515.97 14004.01c399.09,-372.63 374.04,-992.42 113.53,-1447.82 -57.67,-100.81 -49.72,-69.08 -103.45,-152.04 -39.5,277.37 25.24,518.61 26.18,789.06 1.09,302.9 -36.64,528.65 -36.26,810.8z"></path>
   <path class="fil0 str0" d="M16110.51 10393.6c92.1,-179.59 -49.24,-607.34 -149.77,-775.9 -193.65,-324.81 -331.1,-343.51 -518.6,-503.31 3.7,331.39 486.22,1059.37 668.37,1279.21z"></path>
   <path class="fil0 str0" d="M5105.55 10332.7c139.49,-189.19 229.89,-235.4 424.72,-545.77 80.59,-128.32 294.08,-553.56 312.41,-715.21 -367.24,259.76 -791.34,566.01 -737.13,1260.98z"></path>
   <path class="fil0 str0" d="M5208.67 13110.97c9.61,-344.31 35.85,-1067.28 -89.62,-1309.99 -103.18,153.27 -207.01,432.63 -205.58,671.69 1.56,263.21 143.03,564.67 295.2,638.3z"></path>
   <path class="fil0 str0" d="M15946.46 13137.01c314.91,-115.29 418.65,-895.93 94.07,-1303.12 -31.34,466.76 -182.06,821.4 -94.07,1303.12z"></path>
   <path class="fil0 str0" d="M4756.41 10777.5c56.8,-409.71 89.77,-986.08 -108.44,-1306.63 -202.6,334.8 -95.59,1052.51 108.44,1306.63z"></path>
   <path class="fil0 str0" d="M16473.3 10823.62c139.58,-123.92 182.06,-359.9 216.67,-582.48 39.43,-253.84 -26,-497.92 -65.96,-733.86 -171.02,357.2 -251,866.86 -150.71,1316.34z"></path>
   <path class="fil0 str0" d="M14175.97 7844.62c-89.78,305.2 -109.55,842.72 -98.29,1180.92l31.2 474.46c-18.61,814.36 250.56,1096.45 93.37,2465.64 -246.58,2147.61 -1702.08,3029.26 -3417.51,3921.92 -217.95,113.39 -235.83,181.21 -463.15,67.62 -583.01,-291.24 -1579.78,-854 -2047.84,-1248.69 -943.74,-795.85 -1529.87,-1890.16 -1528.4,-3216.91 0.94,-841.34 91.62,-1708.35 188.06,-2539.78 -6.95,-320.74 42.11,-408.72 -61.59,-706.98 -31.82,-93.72 -26.7,-209.01 -39.91,-320.13 -12.65,-106.71 -44.56,-157.79 -71.92,-277.68 -55.03,-135.92 -111.56,-236.8 -184.39,-362.1 -127.57,-219.54 345.42,-366.31 552.09,-436.46 144.32,-49.04 255.78,-109.32 406.15,-157.51 2027.41,-649.5 5022.06,-632.28 6822.1,376.47l134.53 43.3c-62.74,255.87 -249.21,402.03 -314.5,735.91zm270.13 3363.44l0 0c0.85,-1131.65 -398.53,-2503.35 4.92,-3536.91 221.12,-566.38 657.39,-586.39 -387.98,-975.47l-203.03 -104.11c-5.78,-3.03 -10.5,-6.59 -40.24,-13.56 -79.17,-18.55 -211.88,-51.74 -342.65,-91.06 -1430.45,-429.64 -2714.36,-562.52 -4279.5,-379.64 -695.73,81.28 -2314.95,472.74 -2923.39,906.22 -52.32,546.73 419.41,30.11 439.87,2146.65 2.47,251.18 -37.83,538.3 -68.61,769.79 -23.77,178.98 -95.5,558.68 -95.5,715.94 -0.1,1026.26 -28.69,1885.25 455.96,2837.04 632.48,1242.04 1777.85,1859.63 2927.24,2497.08 652.11,361.73 526.41,289.12 1138.85,-6.78l1421.59 -860.26c715.64,-506.7 1316.34,-1132.87 1638.59,-1977.82 224.3,-587.99 313.26,-1146.58 313.88,-1927.11z"></path>
   <path class="fil0 str0" d="M14446.38 11197.71c-0.62,779.26 -89.57,1336.93 -313.88,1923.95 -322.24,843.57 -922.95,1468.7 -1638.58,1974.57l-1421.59 858.85c-612.45,295.4 -486.74,367.9 -1138.86,6.77 -1149.38,-636.41 -2294.75,-1252.98 -2927.22,-2492.98 -484.67,-950.24 -456.06,-1807.81 -455.96,-2832.38 0,-157.01 71.71,-536.08 95.49,-714.78 30.77,-231.1 71.08,-517.75 68.61,-768.51 -20.46,-2113.06 -492.2,-1597.29 -439.87,-2143.13 608.43,-432.77 2227.65,-823.58 2923.39,-904.73 1565.13,-182.58 2849.05,-49.9 4279.48,379.02 130.78,39.26 263.51,72.39 342.67,90.91 29.74,6.96 34.47,10.51 40.24,13.54l203.04 103.93c1045.36,388.45 609.08,408.43 387.98,973.86 -403.47,1031.87 -4.09,2401.32 -4.94,3531.11zm-4655.96 -5352.36l0 0c-946.68,154.45 -918.26,15.81 -2095.77,358.81 -313.59,91.33 -631.98,205.1 -916.01,326.74 -390.06,167.14 -1022.54,322.31 -582.24,935.94 885.42,1233.86 -480.08,3731.2 557,5937.11 445.51,947.63 980.64,1391.71 1759.19,1966.23 121.78,89.83 245.73,165.54 364.34,235.99l1220.46 668.23c442.99,227.56 476.8,158.24 913.49,-58.57 2753.21,-1367.05 3987.64,-2834.31 3561.98,-6182.61 -87.36,-687.41 -170.13,-1604.17 48.29,-2230.39 227.65,-652.61 842.61,-780.21 -537.12,-1328.22 -582.06,-231.2 -1235.14,-421.02 -1954.51,-533.57 -548.47,-85.8 -1772.75,-188.12 -2339.1,-95.69z"></path>
   <path class="fil0 str0" d="M10464.95 14622.33c-9.74,91.32 30.58,68.06 -102.69,65.84 47.55,-56.03 10.55,-40.37 102.69,-65.84zm434.44 -489.6l0 0c-57.48,-121.21 3.09,-674.04 24.79,-855.22 137.94,65.21 207.93,242.93 183.8,442.08 -21.84,180.22 -119,309.5 -208.59,413.14zm-451.55 -1134.97l0 0c-18.92,179.2 30.93,414.62 60.12,587.78l75.07 1206.64c7.95,162.22 -7.23,378.72 -0.46,577.13 184.06,-88.43 224.89,-228.99 196.56,-476.46l9.56 -1159.41c36.87,-148.78 51.47,-422.08 47.77,-585.7 -126.02,-52.78 -210.27,-137.85 -388.62,-149.98zm-150.64 -823.63l0 0c-86.27,-33.73 -95.28,-87.46 -96.96,-223.23 -1.32,-106.58 19.75,-130.96 63.69,-212.22l33.27 435.45zm568.75 2215.05l0 0c192.59,-105.28 588.65,-451.13 604.64,-744.2 41.22,-755.91 -990.01,-914.74 -1287.52,-1438.38 -249.84,-439.74 243.94,-636.53 7.27,-1032.38 -151.44,40.31 -497.72,476.2 -442.04,923.8 82.56,663.76 803.47,786.42 1118.61,993.03 330.63,216.73 488,550.93 268.41,899.34 -36.35,57.67 -103.76,148.19 -145.34,194.87 -76.4,85.77 -127.03,78.95 -124.03,203.92zm76.59 -4556.53l0 0c-102.8,-122.86 -110.04,23.31 -83.52,-352.58 147.82,60.17 203.42,313.2 196.34,476.23 -7.24,166.05 -56.76,360.2 -195.12,469.29 -77.56,-132.84 53.83,-452.73 82.3,-592.94zm-612.19 1544.91l0 0c10.97,125.51 30.37,243.91 31.23,374.03 0.97,148.44 23.1,268.47 20.6,399.72 -3.54,187.92 -36.67,159.12 95.55,265.56 75.47,60.74 187.56,154.36 304.91,167.69 0.22,-168.03 -20.88,-359.22 29.76,-501.64 59.93,-168.48 167.46,-231 105.93,-381.02 -179.64,16.81 -10.8,23.37 -178.23,74.9 -140.39,-228.44 97.08,-1885.23 77.3,-1928.76 -24.73,-54.4 -59.85,-13.37 -55.54,-129.46 12.6,-339.12 117.77,-302.85 -116.27,-466.23 -97.81,-68.29 -178.47,-142.74 -316.61,-170.11 6.53,266.49 142.95,856.03 0.93,1025.33 -218.7,-9.01 -101.03,-55.3 -223.31,-142.74l-114.42 61.3c13.04,111.81 93.63,176.99 123.79,295.32 132.04,517.96 152.62,349.78 214.38,1056.11zm-120.24 -3185.34l0 0c-62.85,-28.67 -87,-66.92 -95.07,-134.27 -10.1,-84.06 10.75,-115 70.17,-146.48l24.9 280.75zm556.09 408.28l0 0c-120.54,-0.97 -342.37,-216.66 -455.08,-263.67l-47.96 -484.31c136.75,20.31 197.3,99.33 286.97,163.5 306.04,218.98 291.89,-77.06 216.07,584.48zm73.81 1976.2l0 0 -29.79 475.77c91.5,-36.03 194.07,-142.83 259.36,-210.64 385.44,-400.3 656,-1075.54 312.61,-1575.91 -74.65,-108.79 -211.59,-246.69 -317.2,-338.43 -296.28,-257.37 -1119.85,-572.11 -1051.86,-937.96 27.64,-148.76 232.4,-287.43 409.53,-184.72 0.07,0.05 510.07,435.23 655.94,256.19 124.81,-153.18 -81,-102.75 192.8,-104.85 66.45,-719.71 -1363.24,-1043.04 -1654.34,-180.86 -175.05,518.52 266.55,876.96 668.73,1148.51 385.4,260.25 875.47,443.17 877.27,1033.43 0.84,278.5 -147,524.74 -323.05,619.47zm-717.1 -3826.41l0 0c0.55,-9.93 3.1,-13.2 5.96,-19.4 28.6,-0.76 108.27,12.2 180.44,27.85 194.61,42.2 50.09,4.48 155.91,88.29 65.34,51.75 60.43,48.55 176.88,23.8 113.94,-24.23 104.28,-53.37 190.71,-4.67 74.97,65.06 -22.07,291.22 -59.89,367.52 -104.71,0.69 -165.08,-33.42 -276.69,-44.19 -125.1,-12.06 -228.72,16.25 -318.58,-12.34 -52.45,-159.72 -62.5,-287.91 -54.74,-426.86zm-46.69 465.62l0 0c-204.71,115.21 -333.9,170.81 -457.87,337.75 -205.03,276.11 -186.15,584.88 -15.6,883.67 66.97,117.31 291.19,305.27 397.66,393.91 65.75,54.75 183.03,129.81 237.05,180.9 6.17,224.3 98.42,887.76 37.8,1012.44 -103.84,-51.24 -26.56,-51.27 -112.84,-148.91 -453.89,51.36 -144.62,349.89 -121.66,509.57 58.4,406.23 331.36,476.72 -11.12,799.32 -128.38,120.91 -168.12,165.94 -256.68,318.92 -312.11,539.04 -49.02,1192.25 570.22,1428.21 1.32,285.12 55.16,512.47 83.92,776.89 13.69,125.69 44.9,718.64 19.14,785.94 -48.59,75.92 -241.37,190.62 -357.48,232.96 -322.2,117.5 -396.35,37.04 -462.6,164.19 6.31,4.68 16.82,2.61 21.03,11.42l69.52 24.7c20.63,3.65 115.88,2.87 138.94,0.87 90.07,-7.81 155.11,-25.59 236.8,-48.07 124.32,-34.22 294.93,-112.08 390.17,-100.24 4.87,153.72 5.93,307.66 6.01,461.38 0.08,186.7 -85.16,255.2 8.75,362.06 47.82,-27.86 118.25,-110.85 172.94,-159.16 492.28,-434.7 -29.85,-779.49 282.13,-994.42 258.57,-178.17 627.96,-513.73 636.17,-829.54 10.52,-404.62 -456.86,-831.71 -726.59,-948.48 19.11,-450.33 -23.41,-413.76 138.97,-795.33 122.24,-287.21 -158.63,-263 -194.47,-274.79 -57.87,-528.46 12.05,-378.1 384.45,-751.7 432.49,-433.88 640.77,-1117.7 273.25,-1632.73 -220.32,-308.77 -401.64,-389.79 -610.5,-556.29l49.67 -462.12c397.92,-78.77 162.21,-56.25 325.08,-153.36 0.93,-0.56 127.66,-49.53 133.88,-51.92 0.93,-254.1 -73.72,-477.07 -297.77,-611.5 -82.06,-49.23 -104.23,-81.92 -203.97,-110.96 43.81,-174.92 154.8,-295.97 72.62,-468.47 -147.79,-51.55 -203.47,-14.96 -352.12,12.22 -107.6,-72.57 -51.46,-79.5 -217.45,-129.59 -71.12,-21.48 -220.91,-66.52 -295.88,-27.94 -143.82,74 26.12,411.79 8.43,558.2z"></path>
   <path class="fil0 str0" d="M10923.78 7534.33c23.92,91.17 20.96,140.94 -96.17,112.64l-18.72 -105.2 114.89 -7.44zm-83.77 3042.37l0 0 -29.79 475.77c91.5,-36.03 194.07,-142.83 259.36,-210.64 385.44,-400.3 656,-1075.54 312.61,-1575.91 -74.65,-108.79 -211.59,-246.69 -317.2,-338.43 -296.28,-257.37 -1119.85,-572.11 -1051.86,-937.96 27.64,-148.76 232.4,-287.43 409.53,-184.72 0.07,0.05 510.07,435.23 655.94,256.19 124.81,-153.18 -81,-102.75 192.8,-104.85 66.45,-719.71 -1363.24,-1043.04 -1654.34,-180.86 -175.05,518.52 266.55,876.96 668.73,1148.51 385.4,260.25 875.47,443.17 877.27,1033.43 0.84,278.5 -147,524.74 -323.05,619.47z"></path>
   <path class="fil0 str0" d="M10329.91 10107.57c-218.7,-9.01 -101.03,-55.3 -223.31,-142.74l-114.42 61.3c13.04,111.81 93.63,176.99 123.79,295.32 132.04,517.96 152.62,349.78 214.38,1056.11 10.97,125.51 30.37,243.91 31.23,374.03 0.97,148.44 23.1,268.47 20.6,399.72 -3.54,187.92 -36.67,159.12 95.55,265.56 75.47,60.74 187.56,154.36 304.91,167.69 0.22,-168.03 -20.88,-359.22 29.76,-501.64 59.93,-168.48 167.46,-231 105.93,-381.02 -179.64,16.81 -10.8,23.37 -178.23,74.9 -140.39,-228.44 97.08,-1885.23 77.3,-1928.76 -24.73,-54.4 -59.85,-13.37 -55.54,-129.46 12.6,-339.12 117.77,-302.85 -116.27,-466.23 -97.81,-68.29 -178.47,-142.74 -316.61,-170.11 6.53,266.49 142.95,856.03 0.93,1025.33z"></path>
   <path class="fil0 str0" d="M10865.95 14389.18c192.59,-105.28 588.65,-451.13 604.64,-744.2 41.22,-755.91 -990.01,-914.74 -1287.52,-1438.38 -249.84,-439.74 243.94,-636.53 7.27,-1032.38 -151.44,40.31 -497.72,476.2 -442.04,923.8 82.56,663.76 803.47,786.42 1118.61,993.03 330.63,216.73 488,550.93 268.41,899.34 -36.35,57.67 -103.76,148.19 -145.34,194.87 -76.4,85.77 -127.03,78.95 -124.03,203.92z"></path>
   <path class="fil0 str0" d="M10779.13 14892.85l9.56 -1159.41c36.87,-148.78 51.47,-422.08 47.77,-585.7 -126.02,-52.78 -210.27,-137.85 -388.62,-149.98 -18.92,179.2 30.93,414.62 60.12,587.78l75.07 1206.64c7.95,162.22 -7.23,378.72 -0.46,577.13 184.06,-88.43 224.89,-228.99 196.56,-476.46z"></path>
   <path class="fil0 str0" d="M10128.87 6730.89c-2.86,6.2 -5.41,9.47 -5.96,19.4 -7.76,138.95 2.29,267.14 54.74,426.86 89.86,28.59 193.48,0.28 318.58,12.34 111.61,10.77 171.98,44.88 276.69,44.19 37.82,-76.3 134.86,-302.46 59.89,-367.52 -86.43,-48.7 -76.77,-19.56 -190.71,4.67 -116.45,24.75 -111.54,27.95 -176.88,-23.8 -105.82,-83.81 38.7,-46.09 -155.91,-88.29 -72.17,-15.65 -151.84,-28.61 -180.44,-27.85z"></path>
   <path class="fil0 str0" d="M10311.12 8336.83c112.71,47.01 334.54,262.7 455.08,263.67 75.82,-661.54 89.97,-365.5 -216.07,-584.48 -89.67,-64.17 -150.22,-143.19 -286.97,-163.5l47.96 484.31z"></path>
   <path class="fil0 str0" d="M10827.61 7646.97c117.13,28.3 120.09,-21.47 96.17,-112.64l-114.89 7.44 18.72 105.2z"></path>
   <path class="fil0 str0" d="M10362.26 14688.17c133.27,2.22 92.95,25.48 102.69,-65.84 -92.14,25.47 -55.14,9.81 -102.69,65.84z"></path>
  </g>
 </g>
</svg>